<?xml version="1.0" encoding="utf-8"?>
<!-- Generator: Adobe Illustrator 24.3.0, SVG Export Plug-In . SVG Version: 6.00 Build 0)  -->
<svg version="1.1" id="Layer_1" xmlns="http://www.w3.org/2000/svg" xmlns:xlink="http://www.w3.org/1999/xlink" x="0px" y="0px"
	 viewBox="0 0 250 250" style="enable-background:new 0 0 250 250;" xml:space="preserve">
<style type="text/css">
	.st0{fill:#BCBEC0;}
</style>
<path class="st0" d="M147.28,40.03v62.69h-44.56V40.03c0-6.85,5.56-12.41,12.41-12.41h19.75C141.72,27.63,147.28,33.19,147.28,40.03
	z"/>
<path class="st0" d="M147.28,147.28v62.68c0,6.85-5.56,12.41-12.41,12.41h-19.75c-6.85,0-12.41-5.56-12.41-12.41v-62.68H147.28z"/>
<rect x="101.44" y="102.72" class="st0" width="47.4" height="44.56"/>
<path class="st0" d="M102.72,102.72v44.56H40.03c-6.85,0-12.41-5.56-12.41-12.41v-19.75c0-6.85,5.56-12.41,12.41-12.41H102.72z"/>
<path class="st0" d="M222.37,115.13v19.75c0,6.85-5.56,12.41-12.41,12.41h-62.68v-44.56h62.68
	C216.81,102.72,222.37,108.28,222.37,115.13z"/>
<rect x="102.72" y="99.3" class="st0" width="44.56" height="49.86"/>
</svg>
